<?xml version="1.0" encoding="utf-8"?>
<!-- Generator: Adobe Illustrator 18.1.1, SVG Export Plug-In . SVG Version: 6.00 Build 0)  -->
<!DOCTYPE svg PUBLIC "-//W3C//DTD SVG 1.1//EN" "http://www.w3.org/Graphics/SVG/1.1/DTD/svg11.dtd">
<svg version="1.1" id="Layer_1" xmlns="http://www.w3.org/2000/svg" xmlns:xlink="http://www.w3.org/1999/xlink" x="0px" y="0px"
	 viewBox="0 0 600 288" enable-background="new 0 0 600 288" xml:space="preserve">
<g>
	<polygon fill="#F4F4C2" points="38.5,83 88.4,83 88.4,253.4 150.9,253.4 150.9,83 192.8,83 192.8,43.2 38.5,43.2 	"/>
	<rect x="139.4" y="91.5" fill="#E47829" width="11.5" height="161.9"/>
	<polygon fill="#E47829" points="38.5,43.2 192.8,43.2 192.8,83 204.3,83 204.3,34.7 38.5,34.7 	"/>
	<rect x="150.9" y="83" fill="#3ABEB7" width="41.9" height="8.5"/>
	<polygon fill="#3ABEB7" points="91.8,83 38.5,83 38.5,43.2 27,43.2 27,91.5 80.3,91.5 80.3,261.9 139.4,261.9 139.4,253.4 
		91.8,253.4 	"/>
</g>
<g>
	<polygon fill="#F4F4C2" points="231.9,83 276.5,83 276.5,253.4 344.3,253.4 344.3,83 386,83 386,43.2 231.9,43.2 	"/>
	<rect x="332.8" y="91.5" fill="#E47829" width="11.5" height="161.9"/>
	<polygon fill="#E47829" points="231.9,43.2 386,43.2 386,83 397.5,83 397.5,34.7 231.9,34.7 	"/>
	<rect x="344.3" y="83" fill="#3ABEB7" width="41.9" height="8.5"/>
	<polygon fill="#3ABEB7" points="285.2,83 231.9,83 231.9,43.2 220.4,43.2 220.4,91.5 273.7,91.5 273.7,261.9 332.8,261.9 
		332.8,253.4 285.2,253.4 	"/>
</g>
<g>
	<polygon fill="#F4F4C2" points="484.4,207.2 484.4,43.2 428.7,43.2 428.7,253.4 436.8,253.4 489,253.4 560.7,253.4 560.7,207.2 	
		"/>
	<polygon fill="#E47829" points="572.2,205.8 487.8,205.8 487.8,34.7 428.7,34.7 428.7,43.2 476.3,43.2 476.3,214.1 560.7,214.1 
		560.7,253.4 572.2,253.4 	"/>
	<polygon fill="#3ABEB7" points="428.7,43.2 417.2,43.2 417.2,261.9 560.7,261.9 560.7,253.4 428.7,253.4 	"/>
</g>
</svg>
